<mxfile host="app.diagrams.net" modified="2021-11-29T02:18:00.054Z" agent="5.0 (Macintosh; Intel Mac OS X 10_15_7) AppleWebKit/537.36 (KHTML, like Gecko) Chrome/96.0.4664.55 Safari/537.36" etag="eiEqYLdSGZo3r0GZcDUH" version="15.8.6" type="github">
  <diagram id="C5RBs43oDa-KdzZeNtuy" name="Page-1">
    <mxGraphModel dx="888" dy="481" grid="1" gridSize="10" guides="1" tooltips="1" connect="1" arrows="1" fold="1" page="1" pageScale="1" pageWidth="827" pageHeight="1169" math="0" shadow="0">
      <root>
        <mxCell id="WIyWlLk6GJQsqaUBKTNV-0" />
        <mxCell id="WIyWlLk6GJQsqaUBKTNV-1" parent="WIyWlLk6GJQsqaUBKTNV-0" />
        <mxCell id="8EkeosTM1MykOs4kjVNQ-19" value="" style="group" vertex="1" connectable="0" parent="WIyWlLk6GJQsqaUBKTNV-1">
          <mxGeometry x="50" y="140" width="226" height="190" as="geometry" />
        </mxCell>
        <mxCell id="8EkeosTM1MykOs4kjVNQ-7" value="" style="rounded=0;whiteSpace=wrap;html=1;" vertex="1" parent="8EkeosTM1MykOs4kjVNQ-19">
          <mxGeometry width="226" height="190" as="geometry" />
        </mxCell>
        <mxCell id="8EkeosTM1MykOs4kjVNQ-8" value="台球店" style="text;html=1;strokeColor=none;fillColor=none;align=center;verticalAlign=middle;whiteSpace=wrap;rounded=0;" vertex="1" parent="8EkeosTM1MykOs4kjVNQ-19">
          <mxGeometry width="60" height="30" as="geometry" />
        </mxCell>
        <mxCell id="8EkeosTM1MykOs4kjVNQ-9" value="" style="group" vertex="1" connectable="0" parent="8EkeosTM1MykOs4kjVNQ-19">
          <mxGeometry x="38" y="40" width="150" height="90" as="geometry" />
        </mxCell>
        <mxCell id="8EkeosTM1MykOs4kjVNQ-0" value="台球桌" style="rounded=0;whiteSpace=wrap;html=1;" vertex="1" parent="8EkeosTM1MykOs4kjVNQ-9">
          <mxGeometry width="120" height="60" as="geometry" />
        </mxCell>
        <mxCell id="8EkeosTM1MykOs4kjVNQ-4" value="台球桌" style="rounded=0;whiteSpace=wrap;html=1;" vertex="1" parent="8EkeosTM1MykOs4kjVNQ-9">
          <mxGeometry x="10" y="10" width="120" height="60" as="geometry" />
        </mxCell>
        <mxCell id="8EkeosTM1MykOs4kjVNQ-5" value="台球桌" style="rounded=0;whiteSpace=wrap;html=1;" vertex="1" parent="8EkeosTM1MykOs4kjVNQ-9">
          <mxGeometry x="20" y="20" width="120" height="60" as="geometry" />
        </mxCell>
        <mxCell id="8EkeosTM1MykOs4kjVNQ-6" value="台球桌" style="rounded=0;whiteSpace=wrap;html=1;" vertex="1" parent="8EkeosTM1MykOs4kjVNQ-9">
          <mxGeometry x="30" y="30" width="120" height="60" as="geometry" />
        </mxCell>
        <mxCell id="8EkeosTM1MykOs4kjVNQ-20" value="" style="group" vertex="1" connectable="0" parent="WIyWlLk6GJQsqaUBKTNV-1">
          <mxGeometry x="310" y="140" width="226" height="190" as="geometry" />
        </mxCell>
        <mxCell id="8EkeosTM1MykOs4kjVNQ-21" value="" style="rounded=0;whiteSpace=wrap;html=1;" vertex="1" parent="8EkeosTM1MykOs4kjVNQ-20">
          <mxGeometry width="226" height="190" as="geometry" />
        </mxCell>
        <mxCell id="8EkeosTM1MykOs4kjVNQ-22" value="台球店" style="text;html=1;strokeColor=none;fillColor=none;align=center;verticalAlign=middle;whiteSpace=wrap;rounded=0;" vertex="1" parent="8EkeosTM1MykOs4kjVNQ-20">
          <mxGeometry width="60" height="30" as="geometry" />
        </mxCell>
        <mxCell id="8EkeosTM1MykOs4kjVNQ-23" value="" style="group" vertex="1" connectable="0" parent="8EkeosTM1MykOs4kjVNQ-20">
          <mxGeometry x="38" y="40" width="150" height="90" as="geometry" />
        </mxCell>
        <mxCell id="8EkeosTM1MykOs4kjVNQ-24" value="台球桌" style="rounded=0;whiteSpace=wrap;html=1;" vertex="1" parent="8EkeosTM1MykOs4kjVNQ-23">
          <mxGeometry width="120" height="60" as="geometry" />
        </mxCell>
        <mxCell id="8EkeosTM1MykOs4kjVNQ-25" value="台球桌" style="rounded=0;whiteSpace=wrap;html=1;" vertex="1" parent="8EkeosTM1MykOs4kjVNQ-23">
          <mxGeometry x="10" y="10" width="120" height="60" as="geometry" />
        </mxCell>
        <mxCell id="8EkeosTM1MykOs4kjVNQ-26" value="台球桌" style="rounded=0;whiteSpace=wrap;html=1;" vertex="1" parent="8EkeosTM1MykOs4kjVNQ-23">
          <mxGeometry x="20" y="20" width="120" height="60" as="geometry" />
        </mxCell>
        <mxCell id="8EkeosTM1MykOs4kjVNQ-27" value="台球桌" style="rounded=0;whiteSpace=wrap;html=1;" vertex="1" parent="8EkeosTM1MykOs4kjVNQ-23">
          <mxGeometry x="30" y="30" width="120" height="60" as="geometry" />
        </mxCell>
        <mxCell id="8EkeosTM1MykOs4kjVNQ-28" value="" style="group" vertex="1" connectable="0" parent="WIyWlLk6GJQsqaUBKTNV-1">
          <mxGeometry x="570" y="140" width="226" height="190" as="geometry" />
        </mxCell>
        <mxCell id="8EkeosTM1MykOs4kjVNQ-29" value="" style="rounded=0;whiteSpace=wrap;html=1;" vertex="1" parent="8EkeosTM1MykOs4kjVNQ-28">
          <mxGeometry width="226" height="190" as="geometry" />
        </mxCell>
        <mxCell id="8EkeosTM1MykOs4kjVNQ-30" value="台球店" style="text;html=1;strokeColor=none;fillColor=none;align=center;verticalAlign=middle;whiteSpace=wrap;rounded=0;" vertex="1" parent="8EkeosTM1MykOs4kjVNQ-28">
          <mxGeometry width="60" height="30" as="geometry" />
        </mxCell>
        <mxCell id="8EkeosTM1MykOs4kjVNQ-31" value="" style="group" vertex="1" connectable="0" parent="8EkeosTM1MykOs4kjVNQ-28">
          <mxGeometry x="38" y="40" width="150" height="90" as="geometry" />
        </mxCell>
        <mxCell id="8EkeosTM1MykOs4kjVNQ-32" value="台球桌" style="rounded=0;whiteSpace=wrap;html=1;" vertex="1" parent="8EkeosTM1MykOs4kjVNQ-31">
          <mxGeometry width="120" height="60" as="geometry" />
        </mxCell>
        <mxCell id="8EkeosTM1MykOs4kjVNQ-33" value="台球桌" style="rounded=0;whiteSpace=wrap;html=1;" vertex="1" parent="8EkeosTM1MykOs4kjVNQ-31">
          <mxGeometry x="10" y="10" width="120" height="60" as="geometry" />
        </mxCell>
        <mxCell id="8EkeosTM1MykOs4kjVNQ-34" value="台球桌" style="rounded=0;whiteSpace=wrap;html=1;" vertex="1" parent="8EkeosTM1MykOs4kjVNQ-31">
          <mxGeometry x="20" y="20" width="120" height="60" as="geometry" />
        </mxCell>
        <mxCell id="8EkeosTM1MykOs4kjVNQ-35" value="台球桌" style="rounded=0;whiteSpace=wrap;html=1;" vertex="1" parent="8EkeosTM1MykOs4kjVNQ-31">
          <mxGeometry x="30" y="30" width="120" height="60" as="geometry" />
        </mxCell>
        <mxCell id="8EkeosTM1MykOs4kjVNQ-36" value="" style="rounded=0;whiteSpace=wrap;html=1;" vertex="1" parent="WIyWlLk6GJQsqaUBKTNV-1">
          <mxGeometry x="50" y="390" width="750" height="140" as="geometry" />
        </mxCell>
        <mxCell id="8EkeosTM1MykOs4kjVNQ-37" value="Java" style="rounded=0;whiteSpace=wrap;html=1;" vertex="1" parent="WIyWlLk6GJQsqaUBKTNV-1">
          <mxGeometry x="140" y="430" width="120" height="60" as="geometry" />
        </mxCell>
        <mxCell id="8EkeosTM1MykOs4kjVNQ-38" value="Java" style="rounded=0;whiteSpace=wrap;html=1;" vertex="1" parent="WIyWlLk6GJQsqaUBKTNV-1">
          <mxGeometry x="610" y="430" width="120" height="60" as="geometry" />
        </mxCell>
        <mxCell id="8EkeosTM1MykOs4kjVNQ-39" value="Java" style="rounded=0;whiteSpace=wrap;html=1;" vertex="1" parent="WIyWlLk6GJQsqaUBKTNV-1">
          <mxGeometry x="354" y="430" width="120" height="60" as="geometry" />
        </mxCell>
        <mxCell id="8EkeosTM1MykOs4kjVNQ-40" value="" style="shape=flexArrow;endArrow=classic;startArrow=classic;html=1;rounded=0;" edge="1" parent="WIyWlLk6GJQsqaUBKTNV-1">
          <mxGeometry width="100" height="100" relative="1" as="geometry">
            <mxPoint x="180" y="390" as="sourcePoint" />
            <mxPoint x="180" y="330" as="targetPoint" />
            <Array as="points">
              <mxPoint x="180" y="360" />
              <mxPoint x="180" y="330" />
            </Array>
          </mxGeometry>
        </mxCell>
        <mxCell id="8EkeosTM1MykOs4kjVNQ-42" value="" style="shape=flexArrow;endArrow=classic;startArrow=classic;html=1;rounded=0;" edge="1" parent="WIyWlLk6GJQsqaUBKTNV-1">
          <mxGeometry width="100" height="100" relative="1" as="geometry">
            <mxPoint x="700" y="390" as="sourcePoint" />
            <mxPoint x="700" y="330" as="targetPoint" />
            <Array as="points">
              <mxPoint x="700" y="360" />
              <mxPoint x="700" y="330" />
            </Array>
          </mxGeometry>
        </mxCell>
        <mxCell id="8EkeosTM1MykOs4kjVNQ-43" value="WebSocket" style="text;html=1;strokeColor=none;fillColor=none;align=center;verticalAlign=middle;whiteSpace=wrap;rounded=0;" vertex="1" parent="WIyWlLk6GJQsqaUBKTNV-1">
          <mxGeometry x="200" y="340" width="60" height="30" as="geometry" />
        </mxCell>
        <mxCell id="8EkeosTM1MykOs4kjVNQ-44" value="WebSocket" style="text;html=1;strokeColor=none;fillColor=none;align=center;verticalAlign=middle;whiteSpace=wrap;rounded=0;" vertex="1" parent="WIyWlLk6GJQsqaUBKTNV-1">
          <mxGeometry x="620" y="340" width="60" height="30" as="geometry" />
        </mxCell>
        <mxCell id="8EkeosTM1MykOs4kjVNQ-45" value="" style="rounded=0;whiteSpace=wrap;html=1;" vertex="1" parent="WIyWlLk6GJQsqaUBKTNV-1">
          <mxGeometry x="50" y="590" width="750" height="170" as="geometry" />
        </mxCell>
        <mxCell id="8EkeosTM1MykOs4kjVNQ-46" value="User1" style="shape=umlActor;verticalLabelPosition=bottom;verticalAlign=top;html=1;outlineConnect=0;" vertex="1" parent="WIyWlLk6GJQsqaUBKTNV-1">
          <mxGeometry x="120" y="630" width="30" height="60" as="geometry" />
        </mxCell>
        <mxCell id="8EkeosTM1MykOs4kjVNQ-50" value="User2" style="shape=umlActor;verticalLabelPosition=bottom;verticalAlign=top;html=1;outlineConnect=0;" vertex="1" parent="WIyWlLk6GJQsqaUBKTNV-1">
          <mxGeometry x="250" y="630" width="30" height="60" as="geometry" />
        </mxCell>
        <mxCell id="8EkeosTM1MykOs4kjVNQ-51" value="User3" style="shape=umlActor;verticalLabelPosition=bottom;verticalAlign=top;html=1;outlineConnect=0;" vertex="1" parent="WIyWlLk6GJQsqaUBKTNV-1">
          <mxGeometry x="384" y="625" width="30" height="60" as="geometry" />
        </mxCell>
        <mxCell id="8EkeosTM1MykOs4kjVNQ-52" value="User4" style="shape=umlActor;verticalLabelPosition=bottom;verticalAlign=top;html=1;outlineConnect=0;" vertex="1" parent="WIyWlLk6GJQsqaUBKTNV-1">
          <mxGeometry x="506" y="625" width="30" height="60" as="geometry" />
        </mxCell>
        <mxCell id="8EkeosTM1MykOs4kjVNQ-55" value="" style="shape=flexArrow;endArrow=classic;startArrow=classic;html=1;rounded=0;" edge="1" parent="WIyWlLk6GJQsqaUBKTNV-1">
          <mxGeometry width="100" height="100" relative="1" as="geometry">
            <mxPoint x="170" y="590" as="sourcePoint" />
            <mxPoint x="170" y="530" as="targetPoint" />
            <Array as="points">
              <mxPoint x="170" y="560" />
              <mxPoint x="170" y="530" />
            </Array>
          </mxGeometry>
        </mxCell>
        <mxCell id="8EkeosTM1MykOs4kjVNQ-56" value="" style="shape=flexArrow;endArrow=classic;startArrow=classic;html=1;rounded=0;" edge="1" parent="WIyWlLk6GJQsqaUBKTNV-1">
          <mxGeometry width="100" height="100" relative="1" as="geometry">
            <mxPoint x="710" y="590" as="sourcePoint" />
            <mxPoint x="710" y="530" as="targetPoint" />
            <Array as="points">
              <mxPoint x="710" y="560" />
              <mxPoint x="710" y="530" />
            </Array>
          </mxGeometry>
        </mxCell>
        <mxCell id="8EkeosTM1MykOs4kjVNQ-57" value="HTTPS" style="text;html=1;strokeColor=none;fillColor=none;align=center;verticalAlign=middle;whiteSpace=wrap;rounded=0;" vertex="1" parent="WIyWlLk6GJQsqaUBKTNV-1">
          <mxGeometry x="190" y="540" width="60" height="30" as="geometry" />
        </mxCell>
        <mxCell id="8EkeosTM1MykOs4kjVNQ-58" value="HTTPS" style="text;html=1;strokeColor=none;fillColor=none;align=center;verticalAlign=middle;whiteSpace=wrap;rounded=0;" vertex="1" parent="WIyWlLk6GJQsqaUBKTNV-1">
          <mxGeometry x="630" y="540" width="60" height="30" as="geometry" />
        </mxCell>
      </root>
    </mxGraphModel>
  </diagram>
</mxfile>
